# xmcd
#
# Track frame offsets:
# 150
# 17943
# 31573
# 44743
# 68488
# 94856
# 115109
# 128859
# 151412
# 172525
# 186205
# 203083
#
# Disc length: 3019 seconds
#
#
# Revision: 0
# Processed by: cddbd v1.5.2PL0 Copyright (c) Steve Scherf et al.
# Submitted via: FreeRIP 2.51 
#
DISCID=920bc90c
DTITLE=Ewan Blackledge - Steel Guitar Songs (spring 2005)
DYEAR=2005
DGENRE=Blues
TTITLE0=Come on in my kitchen
TTITLE1=Here there and everywhere
TTITLE2=Ramblin´on my mind
TTITLE3=Ooh babe
TTITLE4=I know my babe
TTITLE5=When she don´t need me
TTITLE6=Blues in the bottle
TTITLE7=Hellhound on my trail
TTITLE8=All my love in vain
TTITLE9=Crossroads
TTITLE10=When you got a good friend
TTITLE11=Highway 61 revisited
EXTD=street music
EXTT0=
EXTT1=
EXTT2=
EXTT3=
EXTT4=
EXTT5=
EXTT6=
EXTT7=
EXTT8=
EXTT9=
EXTT10=
EXTT11=
PLAYORDER=
